<svg width="18" height="17" viewBox="0 0 18 17" fill="none" xmlns="http://www.w3.org/2000/svg">
<path fill-rule="evenodd" clip-rule="evenodd" d="M0.625 0.375C0.492392 0.375 0.365215 0.427678 0.271447 0.521447C0.177678 0.615215 0.125 0.742392 0.125 0.875C0.125 1.00761 0.177678 1.13479 0.271447 1.22855C0.365215 1.32232 0.492392 1.375 0.625 1.375H2.035C2.06433 1.37501 2.09272 1.38533 2.1152 1.40416C2.13769 1.42299 2.15284 1.44913 2.158 1.478L2.632 4.081C2.63289 4.08702 2.63389 4.09302 2.635 4.099L3.882 10.956C3.88289 10.962 3.88389 10.968 3.885 10.974L4.245 12.951C4.267 13.075 4.31 13.193 4.37 13.301C4.05438 13.5432 3.81558 13.8716 3.68238 14.2465C3.54919 14.6214 3.52729 15.0268 3.61934 15.4138C3.71138 15.8009 3.91343 16.1531 4.20113 16.4279C4.48882 16.7027 4.84987 16.8884 5.24074 16.9626C5.63161 17.0368 6.0356 16.9964 6.404 16.8461C6.7724 16.6959 7.08947 16.4423 7.31698 16.1159C7.54449 15.7896 7.67272 15.4043 7.68621 15.0067C7.6997 14.6091 7.59787 14.2161 7.393 13.875H13.232C12.9974 14.2654 12.8987 14.7224 12.9512 15.1748C13.0038 15.6272 13.2046 16.0495 13.5224 16.3758C13.8402 16.702 14.257 16.9139 14.7079 16.9783C15.1587 17.0427 15.6182 16.956 16.0146 16.7318C16.4111 16.5076 16.7221 16.1584 16.8992 15.7388C17.0763 15.3192 17.1095 14.8528 16.9936 14.4124C16.8778 13.9719 16.6193 13.5822 16.2587 13.3041C15.898 13.026 15.4554 12.8751 15 12.875H5.351C5.32167 12.875 5.29328 12.8647 5.2708 12.8458C5.24831 12.827 5.23316 12.8009 5.228 12.772L4.974 11.375H15.728C15.9915 11.375 16.2467 11.2825 16.449 11.1137C16.6513 10.9448 16.7879 10.7103 16.835 10.451L17.858 4.826C17.8878 4.66384 17.8815 4.4971 17.8396 4.33763C17.7977 4.17816 17.7212 4.02987 17.6156 3.9033C17.5099 3.77673 17.3777 3.67498 17.2282 3.60528C17.0788 3.53558 16.9159 3.49963 16.751 3.5H3.542L3.142 1.299C3.09492 1.03972 2.95831 0.805192 2.756 0.636327C2.55369 0.467462 2.29852 0.374976 2.035 0.375H0.625ZM3.725 4.5L4.792 10.375H15.728C15.7573 10.375 15.7857 10.3647 15.8082 10.3458C15.8307 10.327 15.8458 10.3009 15.851 10.272L16.874 4.647C16.879 4.61992 16.8748 4.59195 16.8621 4.56751C16.8494 4.54307 16.829 4.52354 16.804 4.512C16.7874 4.50416 16.7693 4.50006 16.751 4.5H3.724H3.725ZM13.938 14.938C13.9336 14.7957 13.9579 14.654 14.0093 14.5213C14.0608 14.3886 14.1383 14.2675 14.2374 14.1654C14.3365 14.0632 14.4551 13.9819 14.5862 13.9265C14.7173 13.871 14.8582 13.8424 15.0005 13.8424C15.1428 13.8424 15.2837 13.871 15.4148 13.9265C15.5459 13.9819 15.6645 14.0632 15.7636 14.1654C15.8627 14.2675 15.9402 14.3886 15.9917 14.5213C16.0431 14.654 16.0674 14.7957 16.063 14.938C16.0545 15.2142 15.9389 15.4762 15.7405 15.6685C15.5422 15.8608 15.2768 15.9684 15.0005 15.9684C14.7242 15.9684 14.4588 15.8608 14.2605 15.6685C14.0621 15.4762 13.9465 15.2142 13.938 14.938ZM5.625 13.875C5.48273 13.8706 5.34103 13.8949 5.20831 13.9463C5.07558 13.9978 4.95454 14.0753 4.85236 14.1744C4.75018 14.2735 4.66894 14.3921 4.61346 14.5232C4.55799 14.6543 4.5294 14.7952 4.5294 14.9375C4.5294 15.0798 4.55799 15.2207 4.61346 15.3518C4.66894 15.4829 4.75018 15.6015 4.85236 15.7006C4.95454 15.7997 5.07558 15.8772 5.20831 15.9287C5.34103 15.9801 5.48273 16.0044 5.625 16C5.90115 15.9915 6.16315 15.8759 6.35549 15.6775C6.54783 15.4792 6.6554 15.2138 6.6554 14.9375C6.6554 14.6612 6.54783 14.3958 6.35549 14.1975C6.16315 13.9991 5.90115 13.8835 5.625 13.875Z" fill="black"/>
</svg>
