<svg width="130" height="20" viewBox="0 0 130 20" fill="none" xmlns="http://www.w3.org/2000/svg">
<path d="M39 14.738L33.115 18.93L35.538 11.92L30 7.693H36.923L39 1L41.077 7.693H48L42.808 11.92L44.885 19L39 14.738Z" fill="#202020"/>
<path d="M91 14.738L85.115 18.93L87.538 11.92L82 7.693H88.923L91 1L93.077 7.693H100L94.808 11.92L96.885 19L91 14.738Z" fill="#202020"/>
<path d="M65 14.738L59.115 18.93L61.538 11.92L56 7.693H62.923L65 1L67.077 7.693H74L68.808 11.92L70.885 19L65 14.738Z" fill="#202020"/>
<path d="M13 14.738L7.115 18.93L9.538 11.92L4 7.693H10.923L13 1L15.077 7.693H22L16.808 11.92L18.885 19L13 14.738Z" fill="#202020"/>
<path d="M117 14.738L111.115 18.93L113.538 11.92L108 7.693H114.923L117 1L119.077 7.693H126L120.808 11.92L122.885 19L117 14.738Z" fill="#202020"/>
</svg>
